HIERARCHY
ROOT hip
{
	OFFSET 0.000000 0.000000 0.000000 
	CHANNELS 6 Xposition Yposition Zposition Xrotation Zrotation Yrotation
	JOINT abdomen
	{
		OFFSET 0.000000 3.402643 0.000000 
		CHANNELS 3 Xrotation Zrotation Yrotation
		JOINT chest
		{
			OFFSET 0.000000 8.438565 -0.680529 
			CHANNELS 3 Xrotation Zrotation Yrotation
			JOINT neck
			{
				OFFSET 0.000000 10.207942 -0.272212 
				CHANNELS 3 Xrotation Zrotation Yrotation
				JOINT head
				{
					OFFSET 0.000000 3.130431 0.000000 
					CHANNELS 3 Xrotation Zrotation Yrotation
					End Site
					{
						OFFSET 0.000000 3.130435 0.000000 
					}
				}
			}
			JOINT lCollar
			{
				OFFSET 3.470700 6.669187 -0.816635 
				CHANNELS 3 Yrotation Zrotation Xrotation
				JOINT lShldr
				{
					OFFSET 3.198488 0.000000 0.000000 
					CHANNELS 3 Zrotation Yrotation Xrotation
					JOINT lForeArm
					{
						OFFSET 10.139888 0.000000 0.000000 
						CHANNELS 3 Yrotation Zrotation Xrotation
						JOINT lHand
						{
							OFFSET 8.370511 0.000000 0.000000 
							CHANNELS 3 Zrotation Yrotation Xrotation
							End Site
							{
								OFFSET 4.083176 0.000000 0.000000 
							}
						}
					}
				}
			}
			JOINT rCollar
			{
				OFFSET -3.470700 6.669187 -0.816635 
				CHANNELS 3 Yrotation Zrotation Xrotation
				JOINT rShldr
				{
					OFFSET -3.198488 0.000000 0.000000 
					CHANNELS 3 Zrotation Yrotation Xrotation
					JOINT rForeArm
					{
						OFFSET -10.139888 0.000000 0.000000 
						CHANNELS 3 Yrotation Zrotation Xrotation
						JOINT rHand
						{
							OFFSET -8.370511 0.000000 0.000000 
							CHANNELS 3 Zrotation Yrotation Xrotation
							End Site
							{
								OFFSET -4.083176 0.000000 0.000000 
							}
						}
					}
				}
			}
		}
	}
	JOINT lThigh
	{
		OFFSET 5.308129 -1.633274 1.361059 
		CHANNELS 3 Xrotation Zrotation Yrotation
		JOINT lShin
		{
			OFFSET -2.041588 -20.007561 0.000000 
			CHANNELS 3 Xrotation Zrotation Yrotation
			JOINT lFoot
			{
				OFFSET 0.000000 -19.190928 -1.224953 
				CHANNELS 3 Xrotation Yrotation Zrotation
				End Site
				{
					OFFSET 0.000000 -2.449906 4.627600 
				}
			}
		}
	}
	JOINT rThigh
	{
		OFFSET -5.308129 -1.633274 1.361059 
		CHANNELS 3 Xrotation Zrotation Yrotation
		JOINT rShin
		{
			OFFSET 2.041588 -20.007561 0.000000 
			CHANNELS 3 Xrotation Zrotation Yrotation
			JOINT rFoot
			{
				OFFSET 0.000000 -19.190928 -1.224953 
				CHANNELS 3 Xrotation Yrotation Zrotation
				End Site
				{
					OFFSET 0.000000 -2.449906 4.627600 
				}
			}
		}
	}
}
MOTION
Frames: 18
Frame Time: 0.033333
0.623227 34.819668 0.623227 0.000000 0.000000 0.000000 25.725990 6.575693 -16.252586 -5.019521 0.056502 7.515750 10.775249 -1.533256 -2.181833 10.524219 0.508720 -0.030344 -4.504083 -5.468835 -1.746654 -50.374969 -37.807384 10.132268 -75.215019 -3.098759 1.372968 25.400711 10.625096 -61.315434 1.476337 4.444728 -1.707610 88.603981 45.076099 7.687044 63.216228 2.947901 1.661982 78.196815 41.585297 114.762833 -52.068058 10.565757 6.211482 68.762352 1.467859 -4.618265 -16.001621 6.162456 -1.679134 -26.471504 -18.597488 -27.145777 89.513695 -2.977953 4.550721 -45.810078 -6.778975 2.070836 
-0.681557 37.351494 -0.681557 0.000000 0.000000 0.000000 26.439552 6.780458 -16.164413 -4.970696 0.047083 7.513170 2.864453 -1.981534 -2.039341 10.524219 0.508720 -0.030344 -4.327285 -5.720079 0.423870 -52.730789 -33.810772 13.107294 -74.036850 -3.086148 1.400239 24.770344 10.884663 -62.066544 1.274329 4.421837 0.494255 89.913307 44.453682 8.739159 63.376827 2.948835 1.662944 79.220192 41.698009 115.801170 -46.875660 11.031960 5.347095 59.388783 0.815128 -4.464110 -11.576687 6.284059 -3.485629 -22.771875 -16.773548 -30.223232 80.982185 -2.363048 4.649763 -41.205261 -5.031599 0.756194 
-2.469391 40.594017 -2.469391 0.000000 0.000000 0.000000 26.062847 6.674104 -16.212011 -6.054606 0.189128 7.509968 -5.934875 -1.994230 -1.873960 10.524219 0.508720 -0.030344 -4.218144 -5.482968 2.082102 -54.785065 -29.667891 16.044298 -74.123055 -3.086263 1.399917 24.819235 10.862553 -62.007851 1.088499 4.806814 2.120951 90.256760 40.343369 8.932521 63.482204 2.946743 1.659330 79.875542 41.754280 116.470436 -38.898415 12.262529 4.775280 43.910980 -0.185517 -3.940949 -3.662976 5.925134 -6.049115 -17.059570 -13.306904 -34.877254 68.509239 -1.474325 4.585779 -35.111702 -1.999217 -1.271841 
-2.991306 40.716167 -2.991306 0.000000 0.000000 0.000000 24.402817 6.229886 -16.381866 -8.515127 0.515760 7.493108 -16.064199 -1.462023 -1.876834 10.524219 0.508720 -0.030344 -4.228225 -4.596555 2.010920 -56.675858 -25.310915 19.257813 -75.986740 -3.103233 1.352492 25.823107 10.449607 -60.850311 1.098428 5.687183 1.949133 88.757004 30.214762 7.467104 63.387558 2.949531 1.661911 79.291176 41.702991 115.875420 -38.637211 12.673672 3.956013 42.798786 -0.246814 -3.904006 -2.743278 6.251225 -6.928945 -17.332830 -12.446938 -36.492195 67.749756 -1.415894 4.567860 -34.525314 -1.041489 -2.874517 
-3.091239 39.844463 -3.091239 0.000000 0.000000 0.000000 21.336781 5.419950 -16.668089 -12.674408 1.064080 7.433000 -28.495451 -0.469505 -2.403102 10.524219 0.508720 -0.030344 -4.474507 -2.879272 -1.514183 -59.322052 -18.821529 23.870821 -79.371918 -3.135399 1.259194 27.589739 9.667754 -58.793606 1.491201 7.052955 -1.741119 86.273811 12.475304 5.560766 63.141041 2.942616 1.669585 77.656387 41.529533 114.219666 -40.790916 13.261788 3.437034 44.164345 -0.173095 -3.957285 -1.962511 6.043260 -7.437194 -18.758108 -12.787512 -36.670666 70.857742 -1.630856 4.611513 -36.269520 -1.069289 -3.617100 
-3.007964 38.539677 -3.007964 0.000000 0.000000 0.000000 18.150175 4.528968 -16.931702 -17.000523 1.617999 7.337667 -39.790508 0.344260 -3.386651 10.524219 0.508720 -0.030344 -4.694857 -1.048392 -5.824502 -60.905315 -17.189283 26.512499 -85.029648 -3.169807 1.108894 30.413897 8.247545 -55.477230 2.022369 8.395465 -6.255826 83.391388 -6.874403 4.480927 62.854626 2.938856 1.683127 75.065819 41.191216 111.578117 -44.592857 13.835382 2.865140 48.083893 0.074878 -4.108713 -2.140244 5.722996 -7.696491 -19.802908 -14.056796 -35.325962 75.905357 -2.001903 4.627469 -39.769798 -1.854424 -2.633401 
-2.813625 36.885098 -2.813624 0.000000 0.000000 0.000000 15.902685 3.803358 -17.093784 -20.302559 2.041052 7.226895 -47.225418 0.794119 -4.270441 10.524219 0.508720 -0.030344 -4.807375 0.307486 -9.224025 -61.335815 -21.433058 26.540590 -91.534317 -3.191065 0.928588 33.517525 6.426929 -51.792355 2.485792 9.319718 -9.845942 79.136276 -24.639311 4.583611 62.650799 2.937183 1.677499 70.676704 40.382984 107.110580 -50.679726 14.305350 1.917892 56.056591 0.581107 -4.375450 -4.204224 5.507378 -7.778393 -20.974539 -15.804409 -33.188187 82.357262 -2.460602 4.626102 -44.296146 -3.029118 -0.939402 
-2.635957 34.686398 -2.635957 0.000000 0.000000 0.000000 15.489803 3.503786 -17.149218 -21.426399 2.187320 7.184379 -48.784920 0.961703 -4.427744 10.524219 0.508720 -0.030344 -4.713537 0.618715 -9.921020 -58.362129 -34.122227 22.018545 -98.473267 -3.193794 0.734207 36.688980 4.270849 -47.978336 2.689822 9.536533 -10.586472 74.438667 -35.014366 5.508896 62.566349 2.933928 1.686921 65.764641 39.127827 102.117584 -57.769516 14.637642 0.812421 65.742294 1.254067 -4.568118 -7.043650 5.265698 -7.746509 -22.381445 -17.603626 -30.856005 90.136772 -3.027435 4.565013 -50.041553 -4.241158 0.842836 
-2.697032 29.700520 -2.697032 0.000000 0.000000 0.000000 15.792447 3.444627 -17.160320 -21.494816 2.197044 7.181612 -48.716801 0.950594 -4.314078 10.524219 0.508720 -0.030344 -4.578733 0.475109 -8.831280 -50.559250 -49.274364 12.679557 -105.425026 -3.175607 0.532303 39.751156 1.876187 -44.261673 2.662428 9.535378 -9.482533 69.125092 -42.474384 7.030719 62.469620 2.930444 1.687623 60.702690 37.413486 96.954102 -64.707451 14.795330 -0.280359 75.223335 1.916809 -4.659622 -9.819474 5.080408 -7.636101 -24.755793 -19.804554 -27.825024 104.435501 -4.003321 4.207922 -61.756973 -5.661525 2.678093 
-2.308367 26.946531 -2.308367 0.000000 0.000000 0.000000 16.652605 3.324050 -17.177963 -21.416620 2.177560 7.184896 -47.052204 0.955310 -3.935485 10.524219 0.508720 -0.030344 -4.291543 0.046779 -6.771965 -32.170795 -63.185829 -6.610878 -111.970886 -3.136402 0.360803 42.528328 -0.597963 -40.815495 2.597088 9.363899 -7.346007 63.824074 -48.306610 8.435314 62.225708 2.931049 1.687625 55.845860 35.284267 91.999435 -70.436119 14.677286 -1.017578 83.028923 2.490667 -4.666877 -12.091275 5.023669 -7.324409 -25.789030 -21.148169 -24.995750 111.920326 -4.462679 3.957148 -68.488068 -7.088647 4.708272 
-2.080725 24.797758 -2.080725 0.000000 0.000000 0.000000 17.826086 3.212713 -17.192787 -21.074566 2.138651 7.198220 -44.283627 0.892430 -3.438474 10.524219 0.508720 -0.030344 -3.984448 -0.545694 -4.154510 6.676051 -69.932701 -45.673965 -117.689667 -3.084116 0.210772 44.923347 -2.996563 -37.806015 2.457462 9.080016 -4.642903 58.933018 -52.731548 9.404720 61.716816 2.919653 1.706005 51.435493 32.887684 87.493912 -74.564873 14.647373 -1.596686 88.694016 2.890155 -4.605896 -13.780102 4.892243 -7.138464 -26.461657 -22.259438 -22.666117 117.788918 -4.804402 3.694755 -74.688065 -8.251654 6.379745 
-1.503292 22.660204 -1.503292 0.000000 0.000000 0.000000 19.253645 3.123476 -17.208549 -20.497995 2.070371 7.219983 -40.583866 0.709298 -2.897644 10.524219 0.508720 -0.030344 -3.703470 -1.275011 -1.088039 43.345303 -65.564934 -81.829170 -122.028648 -3.038190 0.101273 46.777016 -5.030010 -35.442989 2.209733 8.687682 -1.469704 55.212788 -55.809357 9.239326 60.818867 2.908007 1.722107 47.630466 30.413879 83.594612 -78.564621 14.129334 -1.949336 94.556145 3.299460 -4.513601 -15.732387 5.233179 -6.670404 -25.260983 -22.914320 -21.925604 121.722740 -5.019039 3.521303 -82.780769 -8.847479 7.224065 
-0.936962 21.316467 -0.936962 0.000000 0.000000 0.000000 20.857496 3.055817 -17.220638 -19.735828 1.972504 7.246054 -36.157764 0.400979 -2.372433 10.524219 0.508720 -0.030344 -3.426924 -2.075246 2.276857 57.736519 -59.166931 -95.587433 -123.548904 -3.015889 0.055546 47.482494 -5.823627 -34.558125 1.878310 8.215117 1.993300 53.488182 -57.512836 7.176000 59.389267 2.884986 1.749709 44.542828 28.067984 80.414955 -81.183868 13.534325 -2.110811 98.654503 3.581774 -4.426788 -17.261225 5.693770 -6.271414 -24.022268 -23.434881 -21.563192 123.701065 -5.135174 3.403127 -88.926674 -9.371531 7.800184 
-0.664900 21.616371 -0.664900 0.000000 0.000000 0.000000 22.618425 3.018853 -17.222471 -18.817438 1.854655 7.283797 -31.200035 -0.065059 -1.919276 10.524219 0.508720 -0.030344 -3.201799 -2.951159 5.835792 66.510979 -50.871193 -102.738937 -125.157372 -2.994405 0.026602 48.412174 -6.956933 -33.369057 1.439257 7.655788 5.636467 54.393764 -57.487782 2.835141 57.397530 2.848322 1.802819 42.283833 26.146563 78.079758 -80.523102 13.124578 -1.992572 98.303665 3.552619 -4.425828 -17.523855 6.117705 -6.189297 -23.719797 -23.786963 -21.171656 121.821327 -5.019160 3.499872 -89.315964 -9.864612 8.125557 
-0.409496 22.843416 -0.409496 0.000000 0.000000 0.000000 24.467251 3.005329 -17.222229 -17.791718 1.716781 7.310314 -25.866796 -0.634154 -1.609706 10.524219 0.508720 -0.030344 -3.024889 -3.845229 9.455385 69.271271 -43.855598 -102.469307 -125.565170 -2.991458 0.015988 49.241188 -8.003724 -32.370842 0.936332 7.033558 9.337006 58.624981 -53.376534 -3.042819 56.224506 2.829209 1.821428 41.482258 25.417023 77.264290 -77.990738 12.665083 -1.600436 95.570457 3.387184 -4.486654 -17.223118 6.679854 -6.094442 -23.629829 -24.006754 -20.910177 117.749428 -4.804350 3.704856 -86.567268 -10.201246 8.405409 
0.012476 24.636862 0.012476 0.000000 0.000000 0.000000 26.364594 3.034785 -17.216017 -16.678205 1.578432 7.344105 -20.370592 -1.310823 -1.481019 10.524219 0.508720 -0.030344 -2.920041 -4.761693 13.007258 68.568344 -38.800625 -98.300079 -124.686882 -2.999969 0.035457 49.773430 -8.676979 -31.803175 0.347502 6.348461 12.954132 62.085995 -50.068142 -9.566812 52.774139 2.766453 1.899437 40.630428 24.613218 76.377060 -74.180031 11.873878 -0.803121 91.395462 3.075894 -4.573554 -16.752192 7.508736 -5.639769 -23.454508 -24.203005 -20.804163 112.555923 -4.511525 3.921790 -81.832550 -10.335244 8.835895 
0.517733 26.857697 0.517733 0.000000 0.000000 0.000000 28.252836 3.083693 -17.196899 -15.515997 1.430013 7.372920 -14.875979 -2.025322 -1.533997 10.524219 0.508720 -0.030344 -2.866997 -5.657356 16.365202 65.969795 -34.902847 -92.505875 -123.066757 -3.024796 0.073680 50.056271 -9.062580 -31.536209 -0.258403 5.623170 16.357450 66.194221 -46.086235 -17.983944 46.179005 2.627167 2.023499 40.481960 24.476791 76.230980 -69.709045 10.985278 0.096855 86.411850 2.734576 -4.637393 -16.150454 8.331773 -5.072355 -22.751408 -24.241882 -20.854660 106.135246 -4.101007 4.160397 -75.917267 -10.362799 9.384261 
1.022989 29.245121 1.022989 0.000000 0.000000 0.000000 30.072514 3.181322 -17.165161 -14.353906 1.281529 7.405531 -9.584943 -2.705805 -1.772949 10.524219 0.508720 -0.030344 -2.874586 -6.506595 19.390068 62.611805 -31.472780 -86.738495 -121.266266 -3.045176 0.115303 50.189007 -9.238673 -31.477060 -0.867983 4.892852 19.419291 70.199020 -40.436066 -26.214848 38.332600 2.452630 2.157741 41.093582 25.050011 76.849358 -65.114273 10.126580 0.888415 81.186836 2.364485 -4.663967 -15.468186 9.016393 -4.508814 -20.809462 -24.020124 -21.108292 98.655418 -3.612829 4.373013 -70.094284 -10.503493 10.176431 
